<?xml version="1.0" standalone="no"?>
<!DOCTYPE svg PUBLIC "-//W3C//DTD SVG 20010904//EN"
 "http://www.w3.org/TR/2001/REC-SVG-20010904/DTD/svg10.dtd">
<svg version="1.0" xmlns="http://www.w3.org/2000/svg"
 width="200.000000pt" height="200.000000pt" viewBox="0 0 200.000000 200.000000"
 preserveAspectRatio="xMidYMid meet">

<g transform="translate(0.000000,200.000000) scale(0.100000,-0.100000)"
fill="#000000" stroke="none">
<path d="M660 1889 c-25 -5 -73 -23 -108 -40 l-63 -32 -29 28 c-29 28 -60 29
-60 2 0 -8 21 -33 46 -57 43 -40 46 -41 67 -25 12 8 51 30 86 47 85 41 171 43
254 5 32 -14 57 -28 57 -30 0 -2 -20 -24 -45 -50 -24 -26 -47 -58 -51 -72 -4
-16 -17 -28 -39 -35 -50 -16 -120 -84 -141 -135 -15 -34 -28 -48 -57 -61 -21
-10 -54 -36 -73 -57 l-34 -40 -27 59 c-37 79 -38 174 -4 257 20 49 22 60 10
68 -24 15 -29 11 -56 -47 -52 -114 -38 -247 38 -364 49 -76 89 -81 89 -10 0
29 47 77 93 95 36 14 45 24 66 72 26 59 74 103 135 123 25 8 37 21 53 59 22
52 54 80 106 90 49 10 45 35 -10 75 -89 66 -207 95 -303 75z"/>
<path d="M170 995 c0 -888 0 -895 20 -895 20 0 20 7 20 895 0 888 0 895 -20
895 -20 0 -20 -7 -20 -895z"/>
<path d="M753 1494 c-4 -12 22 -45 94 -115 91 -90 103 -99 137 -99 51 0 96 44
96 94 0 38 -49 106 -76 106 -28 0 -27 -31 2 -61 24 -25 26 -33 18 -57 -6 -18
-17 -28 -34 -30 -20 -2 -43 16 -115 88 -91 91 -111 103 -122 74z"/>
<path d="M232 878 l3 -233 36 -3 37 -3 3 119 c4 124 13 152 50 152 31 0 39
-33 39 -155 l0 -116 38 3 37 3 3 110 c2 61 0 125 -3 144 -14 73 -92 106 -142
59 l-23 -21 0 86 0 87 -40 0 -40 0 2 -232z"/>
<path d="M580 969 c-33 -13 -32 -13 -19 -43 8 -17 18 -25 27 -21 60 23 92 12
92 -31 0 -18 -5 -24 -22 -24 -46 0 -99 -21 -115 -46 -24 -37 -20 -110 8 -140
30 -32 82 -32 113 0 l24 23 11 -23 c7 -16 19 -24 36 -24 l25 0 0 141 0 141
-29 29 c-25 24 -37 29 -78 28 -26 0 -59 -5 -73 -10z m100 -202 c0 -70 -62 -95
-68 -27 -4 36 16 60 50 60 14 0 18 -8 18 -33z"/>
<path d="M830 740 l0 -240 41 0 41 0 -4 90 -4 90 21 -20 c44 -42 108 -16 134
53 14 36 14 158 0 194 -27 71 -89 94 -133 49 l-24 -23 -11 23 c-7 16 -19 24
-36 24 l-25 0 0 -240z m150 151 c5 -11 10 -47 10 -81 0 -34 -5 -70 -10 -81
-12 -21 -40 -25 -58 -7 -16 16 -16 160 0 176 18 18 46 14 58 -7z"/>
<path d="M1297 973 c-4 -3 -7 -111 -7 -240 l0 -233 40 0 40 0 0 90 0 90 20
-20 c27 -27 75 -26 105 4 60 60 61 228 2 294 -26 28 -77 30 -102 2 -10 -11
-21 -20 -25 -20 -4 0 -10 9 -13 20 -5 20 -45 28 -60 13z m153 -89 c11 -28 12
-106 1 -144 -5 -17 -15 -26 -33 -28 -23 -3 -28 2 -37 35 -23 82 -6 163 35 163
17 0 27 -8 34 -26z"/>
<path d="M1570 965 c0 -9 21 -87 46 -174 43 -145 45 -160 33 -187 -10 -20 -23
-30 -42 -32 -24 -3 -27 -8 -27 -38 0 -33 1 -34 38 -34 44 0 76 20 97 60 15 28
115 385 115 409 0 6 -17 11 -39 11 -39 0 -39 0 -51 -52 -6 -29 -16 -86 -23
-126 l-12 -74 -30 124 -31 123 -37 3 c-29 3 -37 0 -37 -13z"/>
<path d="M1142 718 c-15 -15 -15 -51 0 -66 7 -7 25 -12 40 -12 36 0 56 36 39
69 -13 23 -59 29 -79 9z"/>
</g>
</svg>
